{
    "accessors" : [
        {
            "bufferView" : 0,
            "componentType" : 5121,
            "count" : 84,
            "max" : [
                23
            ],
            "min" : [
                0
            ],
            "type" : "SCALAR"
        },
        {
            "bufferView" : 1,
            "componentType" : 5126,
            "count" : 24,
            "max" : [
                1.9532639980316162,
                -4.698771953582764,
                -1.8409020900726318
            ],
            "min" : [
                -2.224853277206421,
                -4.698771953582764,
                -4.349308967590332
            ],
            "type" : "VEC3"
        },
        {
            "bufferView" : 2,
            "componentType" : 5126,
            "count" : 24,
            "max" : [
                0.0,
                -1.0,
                -0.0
            ],
            "min" : [
                0.0,
                -1.0,
                -0.0
            ],
            "type" : "VEC3"
        },
        {
            "bufferView" : 3,
            "componentType" : 5123,
            "count" : 4614,
            "max" : [
                1518
            ],
            "min" : [
                0
            ],
            "type" : "SCALAR"
        },
        {
            "bufferView" : 4,
            "componentType" : 5126,
            "count" : 1519,
            "max" : [
                4.965488433837891,
                1.6136953830718994,
                -0.05461263656616211
            ],
            "min" : [
                -4.992105484008789,
                -5.197411060333252,
                -7.619241714477539
            ],
            "type" : "VEC3"
        },
        {
            "bufferView" : 5,
            "componentType" : 5126,
            "count" : 1519,
            "max" : [
                1.0,
                1.0,
                1.0
            ],
            "min" : [
                -1.0,
                -1.0,
                -1.0
            ],
            "type" : "VEC3"
        },
        {
            "bufferView" : 6,
            "componentType" : 5121,
            "count" : 132,
            "max" : [
                45
            ],
            "min" : [
                0
            ],
            "type" : "SCALAR"
        },
        {
            "bufferView" : 7,
            "componentType" : 5126,
            "count" : 46,
            "max" : [
                2.905456066131592,
                0.43719732761383057,
                -0.8164877891540527
            ],
            "min" : [
                -1.5342862606048584,
                0.03938557207584381,
                -5.301885604858398
            ],
            "type" : "VEC3"
        },
        {
            "bufferView" : 8,
            "componentType" : 5126,
            "count" : 46,
            "max" : [
                0.860927164554596,
                0.5022736191749573,
                0.86980801820755
            ],
            "min" : [
                -0.860927164554596,
                0.41697439551353455,
                -0.86980801820755
            ],
            "type" : "VEC3"
        },
        {
            "bufferView" : 9,
            "componentType" : 5121,
            "count" : 414,
            "max" : [
                239
            ],
            "min" : [
                0
            ],
            "type" : "SCALAR"
        },
        {
            "bufferView" : 10,
            "componentType" : 5126,
            "count" : 240,
            "max" : [
                0.9806528091430664,
                0.9981920719146729,
                -0.8163248300552368
            ],
            "min" : [
                -0.9806516170501709,
                -0.9981917142868042,
                -1.4003735780715942
            ],
            "type" : "VEC3"
        },
        {
            "bufferView" : 11,
            "componentType" : 5126,
            "count" : 240,
            "max" : [
                0.18430127203464508,
                0.1814020276069641,
                1.0
            ],
            "min" : [
                -0.18430127203464508,
                -0.1814020276069641,
                -1.0
            ],
            "type" : "VEC3"
        },
        {
            "bufferView" : 12,
            "componentType" : 5123,
            "count" : 10134,
            "max" : [
                5657
            ],
            "min" : [
                0
            ],
            "type" : "SCALAR"
        },
        {
            "bufferView" : 13,
            "componentType" : 5126,
            "count" : 5658,
            "max" : [
                1.0178240537643433,
                1.0357941389083862,
                1.0
            ],
            "min" : [
                -1.0178213119506836,
                -1.035793662071228,
                -1.4860466718673706
            ],
            "type" : "VEC3"
        },
        {
            "bufferView" : 14,
            "componentType" : 5126,
            "count" : 5658,
            "max" : [
                0.999969482421875,
                0.999847412109375,
                1.0
            ],
            "min" : [
                -0.999969482421875,
                -0.999755859375,
                -1.0
            ],
            "type" : "VEC3"
        },
        {
            "bufferView" : 15,
            "componentType" : 5121,
            "count" : 120,
            "max" : [
                79
            ],
            "min" : [
                0
            ],
            "type" : "SCALAR"
        },
        {
            "bufferView" : 16,
            "componentType" : 5126,
            "count" : 80,
            "max" : [
                0.9316200017929077,
                0.94828200340271,
                -0.8163305521011353
            ],
            "min" : [
                -0.9316190481185913,
                -0.9482821226119995,
                -0.8699636459350586
            ],
            "type" : "VEC3"
        },
        {
            "bufferView" : 17,
            "componentType" : 5126,
            "count" : 80,
            "max" : [
                0.9880672693252563,
                0.9872737526893616,
                -0.0
            ],
            "min" : [
                -0.9880672693252563,
                -0.9872737526893616,
                -0.0
            ],
            "type" : "VEC3"
        }
    ],
    "asset" : {
        "generator" : "Khronos Blender glTF 2.0 exporter",
        "version" : "2.0"
    },
    "bufferViews" : [
        {
            "buffer" : 0,
            "byteLength" : 84,
            "byteOffset" : 0,
            "target" : 34963
        },
        {
            "buffer" : 0,
            "byteLength" : 288,
            "byteOffset" : 84,
            "target" : 34962
        },
        {
            "buffer" : 0,
            "byteLength" : 288,
            "byteOffset" : 372,
            "target" : 34962
        },
        {
            "buffer" : 0,
            "byteLength" : 9228,
            "byteOffset" : 660,
            "target" : 34963
        },
        {
            "buffer" : 0,
            "byteLength" : 18228,
            "byteOffset" : 9888,
            "target" : 34962
        },
        {
            "buffer" : 0,
            "byteLength" : 18228,
            "byteOffset" : 28116,
            "target" : 34962
        },
        {
            "buffer" : 0,
            "byteLength" : 132,
            "byteOffset" : 46344,
            "target" : 34963
        },
        {
            "buffer" : 0,
            "byteLength" : 552,
            "byteOffset" : 46476,
            "target" : 34962
        },
        {
            "buffer" : 0,
            "byteLength" : 552,
            "byteOffset" : 47028,
            "target" : 34962
        },
        {
            "buffer" : 0,
            "byteLength" : 414,
            "byteOffset" : 47580,
            "target" : 34963
        },
        {
            "buffer" : 0,
            "byteLength" : 2880,
            "byteOffset" : 47996,
            "target" : 34962
        },
        {
            "buffer" : 0,
            "byteLength" : 2880,
            "byteOffset" : 50876,
            "target" : 34962
        },
        {
            "buffer" : 0,
            "byteLength" : 20268,
            "byteOffset" : 53756,
            "target" : 34963
        },
        {
            "buffer" : 0,
            "byteLength" : 67896,
            "byteOffset" : 74024,
            "target" : 34962
        },
        {
            "buffer" : 0,
            "byteLength" : 67896,
            "byteOffset" : 141920,
            "target" : 34962
        },
        {
            "buffer" : 0,
            "byteLength" : 120,
            "byteOffset" : 209816,
            "target" : 34963
        },
        {
            "buffer" : 0,
            "byteLength" : 960,
            "byteOffset" : 209936,
            "target" : 34962
        },
        {
            "buffer" : 0,
            "byteLength" : 960,
            "byteOffset" : 210896,
            "target" : 34962
        }
    ],
    "buffers" : [
        {
            "byteLength" : 211856,
            "uri" : "data:application/octet-stream;base64,"
        }
    ],
    "materials" : [
        {
            "name" : "lambert1.001",
            "pbrMetallicRoughness" : {
                "metallicFactor" : 0.0
            }
        },
        {
            "name" : "pasted__lambert2.001",
            "pbrMetallicRoughness" : {}
        },
        {
            "name" : "pasted__lambert3.001",
            "pbrMetallicRoughness" : {
                "metallicFactor" : 0.0
            }
        }
    ],
    "meshes" : [
        {
            "name" : "pasted__Camera_Body_lambert1_0.001",
            "primitives" : [
                {
                    "attributes" : {
                        "NORMAL" : 2,
                        "POSITION" : 1
                    },
                    "indices" : 0,
                    "material" : 0
                }
            ]
        },
        {
            "name" : "pasted__Camera_Body_pasted__lambert2_0.001",
            "primitives" : [
                {
                    "attributes" : {
                        "NORMAL" : 5,
                        "POSITION" : 4
                    },
                    "indices" : 3,
                    "material" : 1
                }
            ]
        },
        {
            "name" : "pasted__Camera_Body_pasted__lambert3_0.001",
            "primitives" : [
                {
                    "attributes" : {
                        "NORMAL" : 8,
                        "POSITION" : 7
                    },
                    "indices" : 6,
                    "material" : 2
                }
            ]
        },
        {
            "name" : "pasted__Lense_lambert1_0.001",
            "primitives" : [
                {
                    "attributes" : {
                        "NORMAL" : 11,
                        "POSITION" : 10
                    },
                    "indices" : 9,
                    "material" : 0
                }
            ]
        },
        {
            "name" : "pasted__Lense_pasted__lambert2_0.001",
            "primitives" : [
                {
                    "attributes" : {
                        "NORMAL" : 14,
                        "POSITION" : 13
                    },
                    "indices" : 12,
                    "material" : 1
                }
            ]
        },
        {
            "name" : "pasted__Lense_pasted__lambert3_0.001",
            "primitives" : [
                {
                    "attributes" : {
                        "NORMAL" : 17,
                        "POSITION" : 16
                    },
                    "indices" : 15,
                    "material" : 2
                }
            ]
        }
    ],
    "nodes" : [
        {
            "children" : [
                13
            ],
            "name" : "4e2d4af7b8c9454b8efaa0aa2adf8741.fbx.001",
            "rotation" : [
                0.7071068286895752,
                2.5121476791422227e-15,
                8.383521830339238e-17,
                0.7071067094802856
            ],
            "scale" : [
                1.0,
                1.0000001192092896,
                1.0000001192092896
            ],
            "translation" : [
                1.1368683772161603e-13,
                0.0,
                -9.5367431640625e-07
            ]
        },
        {
            "children" : [
                2
            ],
            "name" : "group.001",
            "rotation" : [
                -3.9733185630552725e-09,
                2.956674381509542e-17,
                -9.256248016905951e-30,
                1.0
            ],
            "translation" : [
                1.1368683772161603e-13,
                -9.5367431640625e-07,
                -0.0
            ]
        },
        {
            "children" : [
                3,
                7
            ],
            "name" : "pasted__BodyAndLense_Camera.001",
            "rotation" : [
                -3.9733185630552725e-09,
                2.956674381509542e-17,
                -9.256248016905951e-30,
                1.0
            ],
            "translation" : [
                -1.8845367431640625,
                -9.5367431640625e-07,
                -0.0
            ]
        },
        {
            "children" : [
                4,
                5,
                6
            ],
            "name" : "pasted__Camera_Body.001",
            "rotation" : [
                3.477264254314605e-09,
                -7.925053071539232e-16,
                -2.5084929689001e-08,
                1.0
            ],
            "scale" : [
                1.0,
                0.9999998807907104,
                1.0
            ],
            "translation" : [
                0.0,
                -0.3338766098022461,
                -0.0
            ]
        },
        {
            "mesh" : 0,
            "name" : "pasted__Camera_Body_lambert1_0.001",
            "rotation" : [
                3.477264254314605e-09,
                -5.7046064928933265e-16,
                -2.5084929689001e-08,
                1.0
            ],
            "scale" : [
                1.0,
                0.9999998807907104,
                1.0
            ],
            "translation" : [
                -1.1920928955078125e-07,
                9.5367431640625e-07,
                -2.384185791015625e-07
            ]
        },
        {
            "mesh" : 1,
            "name" : "pasted__Camera_Body_pasted__lambert2_0.001",
            "rotation" : [
                3.477264254314605e-09,
                -5.7046064928933265e-16,
                -2.5084929689001e-08,
                1.0
            ],
            "scale" : [
                1.0,
                0.9999998807907104,
                1.0
            ],
            "translation" : [
                -1.1920928955078125e-07,
                9.5367431640625e-07,
                -2.384185791015625e-07
            ]
        },
        {
            "mesh" : 2,
            "name" : "pasted__Camera_Body_pasted__lambert3_0.001",
            "rotation" : [
                3.477264254314605e-09,
                -5.7046064928933265e-16,
                -2.5084929689001e-08,
                1.0
            ],
            "scale" : [
                1.0,
                0.9999998807907104,
                1.0
            ],
            "translation" : [
                -1.1920928955078125e-07,
                9.5367431640625e-07,
                -2.384185791015625e-07
            ]
        },
        {
            "children" : [
                8,
                9,
                10
            ],
            "name" : "pasted__Lense.001",
            "rotation" : [
                -0.001097382977604866,
                0.7071059346199036,
                -0.7071059346199036,
                -0.001097418018616736
            ],
            "scale" : [
                2.399613618850708,
                2.3823437690734863,
                2.0143752098083496
            ],
            "translation" : [
                0.7189334630966187,
                1.9228906631469727,
                -3.040008783340454
            ]
        },
        {
            "mesh" : 3,
            "name" : "pasted__Lense_lambert1_0.001",
            "rotation" : [
                2.713002267284992e-09,
                -5.202972497286851e-10,
                -5.820766091346741e-11,
                1.0
            ],
            "translation" : [
                -5.960464477539063e-08,
                2.384185791015625e-07,
                -0.0
            ]
        },
        {
            "mesh" : 4,
            "name" : "pasted__Lense_pasted__lambert2_0.001",
            "rotation" : [
                2.713002267284992e-09,
                -5.202972497286851e-10,
                -5.820766091346741e-11,
                1.0
            ],
            "translation" : [
                -5.960464477539063e-08,
                2.384185791015625e-07,
                -0.0
            ]
        },
        {
            "mesh" : 5,
            "name" : "pasted__Lense_pasted__lambert3_0.001",
            "rotation" : [
                2.713002267284992e-09,
                -5.202972497286851e-10,
                -5.820766091346741e-11,
                1.0
            ],
            "translation" : [
                -5.960464477539063e-08,
                2.384185791015625e-07,
                -0.0
            ]
        },
        {
            "children" : [
                12
            ],
            "name" : "RootNode (gltf orientation matrix).004",
            "rotation" : [
                -0.7071068286895752,
                -1.2564890710037231e-16,
                -1.4973565741681968e-22,
                0.7071067094802856
            ],
            "scale" : [
                1.0,
                1.0000001192092896,
                1.0000001192092896
            ],
            "translation" : [
                1.1368683772161603e-13,
                -9.5367431640625e-07,
                -0.0
            ]
        },
        {
            "children" : [
                0
            ],
            "name" : "RootNode (model correction matrix).004",
            "rotation" : [
                3.4151756977962577e-09,
                3.552713678800501e-15,
                5.928044784653946e-17,
                1.0
            ],
            "translation" : [
                1.1368683772161603e-13,
                0.0,
                -9.5367431640625e-07
            ]
        },
        {
            "children" : [
                1
            ],
            "name" : "RootNode.002",
            "rotation" : [
                -3.9733185630552725e-09,
                2.956674381509542e-17,
                -9.256248016905951e-30,
                1.0
            ],
            "translation" : [
                1.1368683772161603e-13,
                -9.5367431640625e-07,
                -0.0
            ]
        },
        {
            "children" : [
                11
            ],
            "name" : "SceneRoot.004",
            "rotation" : [
                -3.090862676913275e-08,
                0.7071068286895752,
                -0.7071068286895752,
                -3.090862321641907e-08
            ],
            "scale" : [
                0.25,
                0.25,
                0.25
            ],
            "translation" : [
                0.0,
                0.6802866458892822,
                -3.6850788593292236
            ]
        }
    ],
    "scene" : 0,
    "scenes" : [
        {
            "name" : "OSG_Scene",
            "nodes" : [
                14
            ]
        }
    ]
}
