{
    "accessors" : [
        {
            "bufferView" : 0,
            "componentType" : 5123,
            "count" : 1038,
            "max" : [
                466
            ],
            "min" : [
                0
            ],
            "type" : "SCALAR"
        },
        {
            "bufferView" : 1,
            "componentType" : 5126,
            "count" : 467,
            "max" : [
                6.0,
                0.7794589996337891,
                -0.2316431999206543
            ],
            "min" : [
                -7.0,
                -1.372435450553894,
                -7.985540390014648
            ],
            "type" : "VEC3"
        },
        {
            "bufferView" : 2,
            "componentType" : 5126,
            "count" : 467,
            "max" : [
                1.0,
                1.0,
                1.0
            ],
            "min" : [
                -1.0,
                -1.0,
                -1.0
            ],
            "type" : "VEC3"
        },
        {
            "bufferView" : 3,
            "componentType" : 5126,
            "count" : 467,
            "max" : [
                0.8288332223892212,
                1.0,
                1.0,
                -1.0
            ],
            "min" : [
                -1.0,
                -1.0,
                -1.0,
                -1.0
            ],
            "type" : "VEC4"
        },
        {
            "bufferView" : 4,
            "componentType" : 5126,
            "count" : 467,
            "max" : [
                0.9446003437042236,
                1.9714056253433228
            ],
            "min" : [
                0.0018854141235351562,
                1.0019920468330383
            ],
            "type" : "VEC2"
        },
        {
            "bufferView" : 5,
            "componentType" : 5121,
            "count" : 36,
            "max" : [
                11
            ],
            "min" : [
                0
            ],
            "type" : "SCALAR"
        },
        {
            "bufferView" : 6,
            "componentType" : 5126,
            "count" : 12,
            "max" : [
                5.800000190734863,
                0.6046872138977051,
                -1.337554693222046
            ],
            "min" : [
                -6.800000190734863,
                0.6046872138977051,
                -7.785540580749512
            ],
            "type" : "VEC3"
        },
        {
            "bufferView" : 7,
            "componentType" : 5126,
            "count" : 12,
            "max" : [
                0.0,
                1.0,
                -0.0
            ],
            "min" : [
                0.0,
                0.999969482421875,
                -0.0
            ],
            "type" : "VEC3"
        },
        {
            "bufferView" : 8,
            "componentType" : 5126,
            "count" : 12,
            "max" : [
                1.0,
                0.0,
                1.9704773990270041e-07,
                1.0
            ],
            "min" : [
                0.9999999403953552,
                0.0,
                -2.3662484238684556e-07,
                1.0
            ],
            "type" : "VEC4"
        },
        {
            "bufferView" : 9,
            "componentType" : 5126,
            "count" : 12,
            "max" : [
                0.9999285340309143,
                0.9999284738732968
            ],
            "min" : [
                7.152612670324743e-05,
                0.48825669288635254
            ],
            "type" : "VEC2"
        }
    ],
    "asset" : {
        "generator" : "Khronos Blender glTF 2.0 exporter",
        "version" : "2.0"
    },
    "bufferViews" : [
        {
            "buffer" : 0,
            "byteLength" : 2076,
            "byteOffset" : 0,
            "target" : 34963
        },
        {
            "buffer" : 0,
            "byteLength" : 5604,
            "byteOffset" : 2076,
            "target" : 34962
        },
        {
            "buffer" : 0,
            "byteLength" : 5604,
            "byteOffset" : 7680,
            "target" : 34962
        },
        {
            "buffer" : 0,
            "byteLength" : 7472,
            "byteOffset" : 13284,
            "target" : 34962
        },
        {
            "buffer" : 0,
            "byteLength" : 3736,
            "byteOffset" : 20756,
            "target" : 34962
        },
        {
            "buffer" : 0,
            "byteLength" : 36,
            "byteOffset" : 24492,
            "target" : 34963
        },
        {
            "buffer" : 0,
            "byteLength" : 144,
            "byteOffset" : 24528,
            "target" : 34962
        },
        {
            "buffer" : 0,
            "byteLength" : 144,
            "byteOffset" : 24672,
            "target" : 34962
        },
        {
            "buffer" : 0,
            "byteLength" : 192,
            "byteOffset" : 24816,
            "target" : 34962
        },
        {
            "buffer" : 0,
            "byteLength" : 96,
            "byteOffset" : 25008,
            "target" : 34962
        }
    ],
    "buffers" : [
        {
            "byteLength" : 25104,
            "uri" : "data:application/octet-stream;base64,"
        }
    ],
    "images" : [
        {
            "mimeType" : "image/jpeg",
            "name" : "phong1_baseColor",
            "uri" : "data:image/jpeg;base64,"
        },
        {
            "mimeType" : "image/png",
            "name" : "phong1_metallicRoughness",
            "uri" : "data:image/png;base64,"
        },
        {
            "mimeType" : "image/png",
            "name" : "myColorGrig",
            "uri" : "data:image/png;base64,"
        }
    ],
    "materials" : [
        {
            "name" : "phong1",
            "pbrMetallicRoughness" : {
                "baseColorTexture" : {
                    "index" : 0
                },
                "metallicRoughnessTexture" : {
                    "index" : 1
                }
            }
        },
        {
            "name" : "screenTV",
            "pbrMetallicRoughness" : {
                "baseColorTexture" : {
                    "index" : 2
                }
            }
        }
    ],
    "meshes" : [
        {
            "name" : "led_tv_phong1_0",
            "primitives" : [
                {
                    "attributes" : {
                        "NORMAL" : 2,
                        "POSITION" : 1,
                        "TANGENT" : 3,
                        "TEXCOORD_0" : 4
                    },
                    "indices" : 0,
                    "material" : 0
                },
                {
                    "attributes" : {
                        "NORMAL" : 7,
                        "POSITION" : 6,
                        "TANGENT" : 8,
                        "TEXCOORD_0" : 9
                    },
                    "indices" : 5,
                    "material" : 1
                }
            ]
        }
    ],
    "nodes" : [
        {
            "mesh" : 0,
            "name" : "led_tv_phong1_0",
            "rotation" : [
                -8.881784197001252e-16,
                -1.343277919663971e-16,
                9.92109505659755e-10,
                1.0
            ],
            "scale" : [
                1.0,
                0.9999999403953552,
                1.0
            ],
            "translation" : [
                0.0,
                -3.027092933654785,
                1.323184193324778e-07
            ]
        },
        {
            "children" : [
                0
            ],
            "name" : "led_tv",
            "rotation" : [
                0.0,
                3.097613252394369e-16,
                9.921059529460763e-10,
                1.0
            ],
            "translation" : [
                0.5699865818023682,
                0.0,
                -7.105427357601002e-15
            ]
        },
        {
            "children" : [
                1
            ],
            "name" : "RootNode",
            "rotation" : [
                0.0,
                3.097613252394369e-16,
                9.921059529460763e-10,
                1.0
            ],
            "translation" : [
                -2.384185791015625e-07,
                0.0,
                -7.105427357601002e-15
            ]
        },
        {
            "children" : [
                2
            ],
            "name" : "led tv.fbx",
            "rotation" : [
                0.7071068286895752,
                -1.4030396844333382e-09,
                5.792782622702499e-16,
                0.7071067094802856
            ],
            "scale" : [
                1.0,
                1.0000001192092896,
                1.0000001192092896
            ],
            "translation" : [
                -2.384185791015625e-07,
                0.0,
                1.1920928955078125e-07
            ]
        },
        {
            "children" : [
                3
            ],
            "name" : "RootNode (model correction matrix).002",
            "rotation" : [
                0.0,
                -9.920952948050399e-10,
                4.0961123665788875e-16,
                1.0
            ],
            "translation" : [
                -2.384185791015625e-07,
                0.0,
                1.1920928955078125e-07
            ]
        },
        {
            "children" : [
                4
            ],
            "name" : "RootNode (gltf orientation matrix).002",
            "rotation" : [
                -0.7071068286895752,
                -8.180063987013163e-16,
                1.4030346884297273e-09,
                0.7071067094802856
            ],
            "scale" : [
                1.0,
                1.0000001192092896,
                1.0000001192092896
            ],
            "translation" : [
                -2.384185791015625e-07,
                1.1920928955078125e-07,
                -0.0
            ]
        },
        {
            "children" : [
                5
            ],
            "name" : "SceneRoot.002",
            "rotation" : [
                0.7071068286895752,
                6.181723932741079e-08,
                -6.181724643283815e-08,
                0.7071068286895752
            ],
            "translation" : [
                3.3308143615722656,
                0.0,
                -1.9446877241134644
            ]
        }
    ],
    "samplers" : [
        {}
    ],
    "scene" : 0,
    "scenes" : [
        {
            "name" : "OSG_Scene",
            "nodes" : [
                6
            ]
        }
    ],
    "textures" : [
        {
            "sampler" : 0,
            "source" : 0
        },
        {
            "sampler" : 0,
            "source" : 1
        },
        {
            "sampler" : 0,
            "source" : 2
        }
    ]
}
