{
    "accessors" : [
        {
            "bufferView" : 0,
            "componentType" : 5121,
            "count" : 180,
            "max" : [
                119
            ],
            "min" : [
                0
            ],
            "type" : "SCALAR"
        },
        {
            "bufferView" : 1,
            "componentType" : 5126,
            "count" : 120,
            "max" : [
                5.855629920959473,
                0.33232998847961426,
                5.855629920959473
            ],
            "min" : [
                -5.855629920959473,
                -11.733670234680176,
                -5.855629920959473
            ],
            "type" : "VEC3"
        },
        {
            "bufferView" : 2,
            "componentType" : 5126,
            "count" : 120,
            "max" : [
                1.0,
                1.0,
                1.0
            ],
            "min" : [
                -1.0,
                -1.0,
                -1.0
            ],
            "type" : "VEC3"
        },
        {
            "bufferView" : 3,
            "componentType" : 5126,
            "count" : 120,
            "max" : [
                1.0,
                1.897269385153777e-06,
                1.0,
                1.0
            ],
            "min" : [
                -1.0,
                -3.0441351555055007e-06,
                -1.0,
                1.0
            ],
            "type" : "VEC4"
        },
        {
            "bufferView" : 4,
            "componentType" : 5126,
            "count" : 120,
            "max" : [
                0.9996456503868103,
                0.9996456608932931
            ],
            "min" : [
                0.0003543391067069024,
                0.00035750865936279297
            ],
            "type" : "VEC2"
        }
    ],
    "asset" : {
        "generator" : "Khronos Blender glTF 2.0 exporter",
        "version" : "2.0"
    },
    "bufferViews" : [
        {
            "buffer" : 0,
            "byteLength" : 180,
            "byteOffset" : 0,
            "target" : 34963
        },
        {
            "buffer" : 0,
            "byteLength" : 1440,
            "byteOffset" : 180,
            "target" : 34962
        },
        {
            "buffer" : 0,
            "byteLength" : 1440,
            "byteOffset" : 1620,
            "target" : 34962
        },
        {
            "buffer" : 0,
            "byteLength" : 1920,
            "byteOffset" : 3060,
            "target" : 34962
        },
        {
            "buffer" : 0,
            "byteLength" : 960,
            "byteOffset" : 4980,
            "target" : 34962
        }
    ],
    "buffers" : [
        {
            "byteLength" : 5940,
            "uri" : "data:application/octet-stream;base64,"
        }
    ],
    "images" : [
        {
            "mimeType" : "image/jpeg",
            "name" : "wooden-texture-pack-3d-model",
            "uri" : "data:image/jpeg;base64,"
        }
    ],
    "materials" : [
        {
            "name" : "Material.002",
            "pbrMetallicRoughness" : {
                "baseColorTexture" : {
                    "index" : 0
                }
            }
        }
    ],
    "meshes" : [
        {
            "name" : "Table_0",
            "primitives" : [
                {
                    "attributes" : {
                        "NORMAL" : 2,
                        "POSITION" : 1,
                        "TANGENT" : 3,
                        "TEXCOORD_0" : 4
                    },
                    "indices" : 0,
                    "material" : 0
                }
            ]
        }
    ],
    "nodes" : [
        {
            "mesh" : 0,
            "name" : "Table_0",
            "rotation" : [
                0.0,
                -1.9195343523391012e-29,
                -0.0,
                1.0
            ]
        },
        {
            "children" : [
                0
            ],
            "name" : "Table",
            "rotation" : [
                0.0,
                -1.9195343523391012e-29,
                -0.0,
                1.0
            ]
        },
        {
            "children" : [
                1
            ],
            "name" : "Root",
            "rotation" : [
                0.0,
                -1.9195343523391012e-29,
                -0.0,
                1.0
            ]
        },
        {
            "children" : [
                2
            ],
            "name" : "RootNode (model correction matrix).001",
            "rotation" : [
                0.0,
                -1.9195343523391012e-29,
                -0.0,
                1.0
            ]
        },
        {
            "children" : [
                3
            ],
            "name" : "RootNode (gltf orientation matrix).001",
            "rotation" : [
                -0.7071068286895752,
                -1.357315829730641e-29,
                -1.4973565741681968e-22,
                0.7071067094802856
            ],
            "scale" : [
                1.0,
                1.0000001192092896,
                1.0000001192092896
            ]
        },
        {
            "children" : [
                4
            ],
            "name" : "SceneRoot.001",
            "rotation" : [
                -3.090862676913275e-08,
                0.7071068286895752,
                -0.7071068286895752,
                -3.090862321641907e-08
            ]
        }
    ],
    "samplers" : [
        {}
    ],
    "scene" : 0,
    "scenes" : [
        {
            "name" : "OSG_Scene",
            "nodes" : [
                5
            ]
        }
    ],
    "textures" : [
        {
            "sampler" : 0,
            "source" : 0
        }
    ]
}
